<svg width="28" height="30" viewBox="0 0 28 30" fill="none" xmlns="http://www.w3.org/2000/svg">
<path d="M26.9015 23.7643C26.1991 22.1296 25.1799 20.6448 23.9005 19.3926C22.625 18.1367 21.114 17.1355 19.451 16.444C19.4361 16.4367 19.4212 16.433 19.4063 16.4257C21.726 14.7795 23.234 12.098 23.234 9.07256C23.234 4.0607 19.101 0 14 0C8.89897 0 4.76602 4.0607 4.76602 9.07256C4.76602 12.098 6.27399 14.7795 8.59365 16.4294C8.57876 16.4367 8.56387 16.4404 8.54897 16.4477C6.8809 17.1391 5.3841 18.1305 4.09953 19.3963C2.82133 20.6495 1.80223 22.134 1.09849 23.7679C0.407141 25.3675 0.0342809 27.0825 9.31068e-05 28.82C-0.000900682 28.8591 0.00606959 28.8979 0.0205934 28.9343C0.0351172 28.9706 0.0569006 29.0038 0.08466 29.0317C0.112419 29.0597 0.145593 29.0819 0.182227 29.097C0.21886 29.1122 0.258212 29.12 0.297963 29.12H2.53199C2.69582 29.12 2.82614 28.992 2.82986 28.8347C2.90433 26.0105 4.05858 23.3655 6.09899 21.3608C8.21014 19.2865 11.0139 18.1451 14 18.1451C16.9862 18.1451 19.7899 19.2865 21.901 21.3608C23.9414 23.3655 25.0957 26.0105 25.1701 28.8347C25.1739 28.9956 25.3042 29.12 25.468 29.12H27.702C27.7418 29.12 27.7811 29.1122 27.8178 29.097C27.8544 29.0819 27.8876 29.0597 27.9153 29.0317C27.9431 29.0038 27.9649 28.9706 27.9794 28.9343C27.9939 28.8979 28.0009 28.8591 27.9999 28.82C27.9627 27.0714 27.5941 25.3703 26.9015 23.7643V23.7643ZM14 15.3648C12.291 15.3648 10.6825 14.71 9.47237 13.521C8.26227 12.3321 7.59579 10.7517 7.59579 9.07256C7.59579 7.39341 8.26227 5.81303 9.47237 4.62408C10.6825 3.43514 12.291 2.7803 14 2.7803C15.709 2.7803 17.3175 3.43514 18.5276 4.62408C19.7377 5.81303 20.4042 7.39341 20.4042 9.07256C20.4042 10.7517 19.7377 12.3321 18.5276 13.521C17.3175 14.71 15.709 15.3648 14 15.3648Z" fill="#34C759"/>
</svg>
