<svg width="30" height="23" viewBox="0 0 30 23" fill="none" xmlns="http://www.w3.org/2000/svg">
<path d="M29.7647 2.74329C29.6735 2.63068 29.5586 2.53969 29.4281 2.47689C29.2977 2.41408 29.155 2.38101 29.0103 2.38005H8.61148L9.24833 4.34354H27.7268L25.1108 16.1245H10.4143L5.93672 1.91863C5.88828 1.76789 5.80418 1.63113 5.69158 1.52001C5.57898 1.40889 5.44123 1.32672 5.29007 1.28049L1.27302 0.0434945C1.1495 0.00546174 1.01971 -0.0078207 0.891073 0.00440544C0.762432 0.0166316 0.637453 0.0541269 0.523273 0.114751C0.292677 0.237186 0.120064 0.446395 0.0434084 0.696355C-0.0332476 0.946315 -0.00766759 1.21655 0.114521 1.44761C0.23671 1.67867 0.445498 1.85164 0.694955 1.92845L4.21232 3.00837L8.70946 17.2437L7.10264 18.5592L6.97527 18.6868C6.57781 19.1458 6.35253 19.7293 6.33822 20.3368C6.32392 20.9443 6.52148 21.5377 6.89689 22.015C7.16393 22.3404 7.50327 22.5986 7.88777 22.7691C8.27226 22.9396 8.69123 23.0175 9.11117 22.9967H25.4635C25.7234 22.9967 25.9726 22.8933 26.1563 22.7092C26.34 22.525 26.4433 22.2753 26.4433 22.015C26.4433 21.7546 26.34 21.5049 26.1563 21.3208C25.9726 21.1366 25.7234 21.0332 25.4635 21.0332H8.9544C8.84158 21.0293 8.73166 20.9964 8.63525 20.9375C8.53885 20.8787 8.45922 20.7959 8.40406 20.6972C8.3489 20.5985 8.32008 20.4872 8.32037 20.3741C8.32066 20.261 8.35006 20.1499 8.40573 20.0515L10.767 18.088H25.8946C26.1211 18.0935 26.3425 18.0202 26.5211 17.8806C26.6998 17.741 26.8246 17.5437 26.8744 17.3222L29.9802 3.57778C30.01 3.43142 30.0061 3.28017 29.9687 3.13556C29.9314 2.99095 29.8616 2.85679 29.7647 2.74329V2.74329Z" fill="#34C759"/>
</svg>
