<svg width="28" height="25" viewBox="0 0 28 25" fill="none" xmlns="http://www.w3.org/2000/svg">
<path d="M27.3226 5.04948C26.8881 4.06135 26.2617 3.16593 25.4784 2.41332C24.6945 1.65847 23.7702 1.0586 22.7558 0.646327C21.704 0.217133 20.5759 -0.0025527 19.4369 2.23783e-05C17.8391 2.23783e-05 16.2801 0.429831 14.9253 1.24169C14.6012 1.4359 14.2933 1.64921 14.0016 1.88163C13.7099 1.64921 13.402 1.4359 13.0779 1.24169C11.7231 0.429831 10.1641 2.23783e-05 8.56626 2.23783e-05C7.41566 2.23783e-05 6.30072 0.216519 5.24736 0.646327C4.22965 1.06022 3.31242 1.65558 2.52483 2.41332C1.74047 3.16508 1.1139 4.06072 0.680633 5.04948C0.230119 6.07784 0 7.16987 0 8.29374C0 9.35393 0.220396 10.4587 0.657946 11.5826C1.02419 12.5218 1.54925 13.496 2.22016 14.4798C3.28325 16.0367 4.74499 17.6604 6.56001 19.3064C9.56776 22.0349 12.5463 23.9197 12.6727 23.9961L13.4409 24.48C13.7812 24.6933 14.2188 24.6933 14.5591 24.48L15.3272 23.9961C15.4536 23.9165 18.429 22.0349 21.44 19.3064C23.255 17.6604 24.7167 16.0367 25.7798 14.4798C26.4507 13.496 26.979 12.5218 27.342 11.5826C27.7796 10.4587 28 9.35393 28 8.29374C28.0032 7.16987 27.7731 6.07784 27.3226 5.04948V5.04948ZM14.0016 21.9617C14.0016 21.9617 2.46324 14.6995 2.46324 8.29374C2.46324 5.04948 5.1955 2.41969 8.56626 2.41969C10.9355 2.41969 12.9904 3.71866 14.0016 5.61619C15.0128 3.71866 17.0677 2.41969 19.4369 2.41969C22.8077 2.41969 25.54 5.04948 25.54 8.29374C25.54 14.6995 14.0016 21.9617 14.0016 21.9617Z" fill="#34C759"/>
</svg>
