<svg width="6" height="8" viewBox="0 0 6 8" fill="none" xmlns="http://www.w3.org/2000/svg">
<path d="M3.15 3.175C3.564 3.175 3.933 3.253 4.257 3.409C4.587 3.565 4.845 3.79 5.031 4.084C5.217 4.372 5.31 4.705 5.31 5.083C5.31 5.479 5.211 5.827 5.013 6.127C4.821 6.427 4.554 6.661 4.212 6.829C3.876 6.991 3.498 7.072 3.078 7.072C2.232 7.072 1.578 6.799 1.116 6.253C0.66 5.707 0.432 4.933 0.432 3.931C0.432 3.229 0.555 2.632 0.801 2.14C1.053 1.642 1.401 1.267 1.845 1.015C2.295 0.757 2.817 0.628 3.411 0.628C3.717 0.628 4.005 0.661 4.275 0.727C4.545 0.787 4.779 0.877 4.977 0.997L4.635 1.699C4.335 1.501 3.933 1.402 3.429 1.402C2.775 1.402 2.262 1.606 1.89 2.014C1.518 2.416 1.332 3.004 1.332 3.778C1.332 3.874 1.335 3.949 1.341 4.003C1.521 3.733 1.767 3.529 2.079 3.391C2.397 3.247 2.754 3.175 3.15 3.175ZM3.042 6.343C3.456 6.343 3.792 6.232 4.05 6.01C4.308 5.788 4.437 5.491 4.437 5.119C4.437 4.747 4.305 4.453 4.041 4.237C3.783 4.015 3.435 3.904 2.997 3.904C2.715 3.904 2.463 3.958 2.241 4.066C2.025 4.174 1.854 4.321 1.728 4.507C1.608 4.693 1.548 4.9 1.548 5.128C1.548 5.35 1.605 5.554 1.719 5.74C1.839 5.92 2.01 6.067 2.232 6.181C2.46 6.289 2.73 6.343 3.042 6.343Z" fill="white"/>
</svg>
