<svg width="120" height="120" viewBox="0 0 120 120" fill="none" xmlns="http://www.w3.org/2000/svg">
<circle cx="60" cy="60" r="59.5" fill="#252525" stroke="#34C759"/>
<path d="M50.4 46.9048V56.4262H57.6V46.9048H62.4V56.4262H69.6V46.9048H74.4V56.4262L76.8 56.4286C78.6365 56.4285 80.4036 57.1246 81.7398 58.3745C83.076 59.6244 83.8803 61.3336 83.988 63.1524L84 63.5714V65.9524C84 68.3667 83.0952 70.5714 81.6024 72.25L81.6 82.619C81.6 83.2505 81.3471 83.8561 80.8971 84.3026C80.447 84.7492 79.8365 85 79.2 85H40.8C40.1635 85 39.553 84.7492 39.1029 84.3026C38.6529 83.8561 38.4 83.2505 38.4 82.619V72.2381C37.1104 70.7804 36.297 68.9689 36.0672 67.0429L36.0144 66.4405L36 65.9524V63.5714C35.9999 61.7495 36.7016 59.9964 37.9615 58.6708C39.2214 57.3452 40.9443 56.5474 42.7776 56.4405L43.2 56.4286L45.6 56.4262V46.9048H50.4ZM52.8048 72.2405L52.6752 72.3905C51.102 74.0945 48.9572 75.1719 46.6416 75.4214L46.0896 75.4643L45.6 75.4762C44.772 75.4762 43.968 75.3714 43.2 75.1762V80.2381H76.8V75.1762C75.2289 75.5769 73.5811 75.5768 72.01 75.1759C70.439 74.775 68.9957 73.9863 67.8144 72.8833L67.4544 72.5262L67.2 72.2476L66.9432 72.5286C65.3869 74.1495 63.3036 75.1732 61.0608 75.419L60.48 75.4667L60 75.4762C57.4883 75.4798 55.0764 74.5012 53.2872 72.7524L52.9272 72.3786L52.8048 72.2405ZM76.8 61.1905H43.2C42.6122 61.1906 42.0448 61.4047 41.6055 61.7922C41.1662 62.1797 40.8856 62.7137 40.8168 63.2929L40.8 63.5714V65.8833L40.8072 66.2333C40.8794 67.4457 41.4159 68.5849 42.3068 69.4179C43.1977 70.2508 44.3758 70.7146 45.6 70.7143C46.7495 70.7163 47.8615 70.3088 48.7336 69.5659C49.6058 68.823 50.1801 67.7942 50.352 66.6667L50.388 66.3024L50.4 65.8833C50.4864 62.9119 54.7848 62.8048 55.1736 65.5643L55.1976 65.8833L55.2072 66.2333C55.2743 67.4427 55.8035 68.5813 56.6869 69.4173C57.5704 70.2533 58.7418 70.7239 59.9627 70.7333C61.1835 70.7427 62.3621 70.2902 63.2586 69.4679C64.155 68.6456 64.7019 67.5154 64.788 66.3071L64.8168 65.6357C65.1144 62.8833 69.2856 62.8833 69.5832 65.6357L69.612 66.3071C69.6978 67.5088 70.2395 68.6336 71.128 69.4548C72.0165 70.2759 73.1857 70.7325 74.4 70.7325C75.6143 70.7325 76.7835 70.2759 77.672 69.4548C78.5605 68.6336 79.1022 67.5088 79.188 66.3071L79.2 65.9524V63.5714C79.1999 62.9883 78.9841 62.4254 78.5935 61.9896C78.2029 61.5538 77.6646 61.2754 77.0808 61.2071L76.8 61.1905ZM48 35C51.168 37.0738 51.9912 39.9714 51.4776 41.8762C51.2306 42.7912 50.6274 43.5714 49.8006 44.0451C48.9738 44.5189 47.9911 44.6474 47.0688 44.4024C46.1465 44.1574 45.3601 43.5589 44.8825 42.7387C44.405 41.9184 44.2754 40.9436 44.5224 40.0286C45.24 37.3857 48 38.5714 48 35ZM60 35C63.168 37.0738 63.9912 39.9714 63.4776 41.8762C63.2306 42.7912 62.6274 43.5714 61.8006 44.0451C60.9738 44.5189 59.9911 44.6474 59.0688 44.4024C58.1465 44.1574 57.3601 43.5589 56.8825 42.7387C56.405 41.9184 56.2754 40.9436 56.5224 40.0286C57.24 37.3857 60 38.5714 60 35ZM72 35C75.168 37.0738 75.9912 39.9714 75.4776 41.8762C75.2306 42.7912 74.6274 43.5714 73.8006 44.0451C72.9738 44.5189 71.9911 44.6474 71.0688 44.4024C70.1465 44.1574 69.3601 43.5589 68.8825 42.7387C68.405 41.9184 68.2754 40.9436 68.5224 40.0286C69.24 37.3857 72 38.5714 72 35Z" fill="#34C759" fill-opacity="0.75"/>
</svg>
