<svg width="120" height="120" viewBox="0 0 120 120" fill="none" xmlns="http://www.w3.org/2000/svg">
<circle cx="60" cy="60" r="59.5" fill="#252525" stroke="#34C759"/>
<path d="M47.5 45V37.5C47.5 36.837 47.7634 36.2011 48.2322 35.7322C48.7011 35.2634 49.337 35 50 35H70C70.663 35 71.2989 35.2634 71.7678 35.7322C72.2366 36.2011 72.5 36.837 72.5 37.5V45H82.5C83.163 45 83.7989 45.2634 84.2678 45.7322C84.7366 46.2011 85 46.837 85 47.5V82.5C85 83.163 84.7366 83.7989 84.2678 84.2678C83.7989 84.7366 83.163 85 82.5 85H37.5C36.837 85 36.2011 84.7366 35.7322 84.2678C35.2634 83.7989 35 83.163 35 82.5V47.5C35 46.837 35.2634 46.2011 35.7322 45.7322C36.2011 45.2634 36.837 45 37.5 45H47.5ZM52.5 65H40V80H80V65H67.5V72.5H52.5V65ZM80 50H40V60H52.5V55H67.5V60H80V50ZM57.5 60V67.5H62.5V60H57.5ZM52.5 40V45H67.5V40H52.5Z" fill="#34C759" fill-opacity="0.75"/>
</svg>
