<svg width="120" height="120" viewBox="0 0 120 120" fill="none" xmlns="http://www.w3.org/2000/svg">
<circle cx="60" cy="60" r="59.5" fill="#252525" stroke="#34C759"/>
<path d="M60.847 35C62.6993 40.2503 66.336 44.6783 71.1186 47.5065C75.9012 50.3347 81.524 51.3825 87 50.4658C86.7896 52.9695 85.7911 55.3413 84.1487 57.2382C82.5063 59.1352 80.3052 60.459 77.8635 61.0184V79.7342L83.1098 79.7368V85H35.8928V79.7368H41.1391V61.0184C38.6973 60.4588 36.496 59.1349 34.8533 57.238C33.2105 55.3412 32.2113 52.9696 32 50.4658C37.4764 51.384 43.1003 50.3372 47.8839 47.5094C52.6676 44.6816 56.3053 40.2535 58.1583 35.0026H60.847V35ZM72.6172 61.3132H46.3855V79.7342H72.6172V61.3132ZM59.5013 43.7526L59.2128 44.1605C55.08 49.8408 49.0292 53.8196 42.1884 55.3553L41.2493 55.5474L43.0147 56.0474H75.9958L77.7481 55.5474L77.7192 55.5421C70.5184 54.1677 64.108 50.098 59.7872 44.1579L59.5013 43.75V43.7526Z" fill="#34C759" fill-opacity="0.75"/>
</svg>
