<svg width="20" height="20" viewBox="0 0 20 20" fill="none" xmlns="http://www.w3.org/2000/svg">
<path d="M16.2824 2.79727C14.5054 0.992578 12.1389 0 9.62393 0C4.43286 0 0.208754 4.27969 0.208754 9.53906C0.208754 11.2191 0.641343 12.8605 1.46411 14.3086L0.128174 19.25L5.11991 17.9223C6.49402 18.6828 8.04201 19.0824 9.61969 19.0824H9.62393C14.8108 19.0824 19.1282 14.8027 19.1282 9.54336C19.1282 6.99531 18.0594 4.60195 16.2824 2.79727ZM9.62393 17.4754C8.2159 17.4754 6.83755 17.093 5.63733 16.3711L5.35317 16.1992L2.39291 16.9855L3.18175 14.0594L2.99514 13.7586C2.21054 12.4953 1.79916 11.0387 1.79916 9.53906C1.79916 5.16914 5.31076 1.61133 9.62817 1.61133C11.719 1.61133 13.6826 2.43633 15.1585 3.93594C16.6344 5.43555 17.542 7.425 17.5378 9.54336C17.5378 13.9176 13.9371 17.4754 9.62393 17.4754ZM13.9159 11.5371C13.6826 11.4168 12.5248 10.841 12.3085 10.7637C12.0922 10.682 11.9353 10.6434 11.7784 10.884C11.6215 11.1246 11.1719 11.6574 11.032 11.8207C10.8963 11.9797 10.7563 12.0012 10.523 11.8809C9.14045 11.1805 8.23286 10.6305 7.32103 9.04492C7.07929 8.62383 7.56277 8.65391 8.01233 7.74297C8.08866 7.58398 8.05049 7.44648 7.99112 7.32617C7.93174 7.20586 7.46099 6.03281 7.2659 5.55586C7.07505 5.0918 6.87996 5.15625 6.73576 5.14766C6.60005 5.13906 6.44313 5.13906 6.28621 5.13906C6.12929 5.13906 5.87483 5.19922 5.65853 5.43555C5.44224 5.67617 4.83576 6.25195 4.83576 7.425C4.83576 8.59805 5.67974 9.73242 5.79425 9.89141C5.913 10.0504 7.4525 12.4566 9.81478 13.4922C11.3076 14.1453 11.8929 14.2012 12.6393 14.0895C13.0931 14.0207 14.0304 13.5137 14.2255 12.9551C14.4206 12.3965 14.4206 11.9195 14.3612 11.8207C14.3061 11.7133 14.1492 11.6531 13.9159 11.5371Z" fill="white"/>
</svg>
