<svg width="21" height="16" viewBox="0 0 21 16" fill="none" xmlns="http://www.w3.org/2000/svg">
<path d="M18.1092 3.978C18.1222 4.153 18.1222 4.327 18.1222 4.501C18.1222 9.826 14.0692 15.962 6.6622 15.962C4.3802 15.962 2.2602 15.301 0.476196 14.153C0.800196 14.19 1.1122 14.203 1.4492 14.203C3.26219 14.2074 5.02384 13.6011 6.4502 12.482C5.60962 12.4668 4.79477 12.1895 4.11943 11.6887C3.4441 11.188 2.94198 10.4889 2.6832 9.689C2.9322 9.726 3.1822 9.751 3.4442 9.751C3.8052 9.751 4.1682 9.701 4.5052 9.614C3.59296 9.42981 2.77267 8.93535 2.18382 8.21469C1.59496 7.49402 1.27389 6.59165 1.2752 5.661V5.611C1.8122 5.91 2.4352 6.097 3.0952 6.122C2.54228 5.75459 2.08892 5.25602 1.77554 4.67079C1.46216 4.08556 1.29851 3.43186 1.2992 2.768C1.2992 2.02 1.4982 1.334 1.8472 0.736001C2.85933 1.98102 4.1217 2.99956 5.55253 3.72566C6.98337 4.45176 8.55076 4.86922 10.1532 4.951C10.0912 4.651 10.0532 4.34 10.0532 4.028C10.0529 3.49896 10.1569 2.97506 10.3593 2.48624C10.5616 1.99742 10.8583 1.55327 11.2324 1.17919C11.6065 0.805102 12.0506 0.508411 12.5394 0.306078C13.0283 0.103746 13.5522 -0.000262379 14.0812 4.97063e-07C15.2412 4.97063e-07 16.2882 0.486 17.0242 1.272C17.926 1.09762 18.7907 0.768422 19.5802 0.299C19.2796 1.22982 18.65 2.0191 17.8092 2.519C18.609 2.42778 19.3906 2.21745 20.1282 1.895C19.5773 2.6981 18.8947 3.40235 18.1092 3.978Z" fill="white"/>
</svg>
